<svg width="16" height="16" viewBox="0 0 16 16" fill="none" xmlns="http://www.w3.org/2000/svg">
<mask id="mask0_49_2115" style="mask-type:alpha" maskUnits="userSpaceOnUse" x="2" y="2" width="12" height="12">
<path d="M3.47248 8.66656H10.9191L7.66582 11.9199C7.40582 12.1799 7.40582 12.6066 7.66582 12.8666C7.92582 13.1266 8.34582 13.1266 8.60582 12.8666L12.9991 8.47322C13.2591 8.21322 13.2591 7.79322 12.9991 7.53322L8.61248 3.13322C8.48793 3.00839 8.31883 2.93823 8.14248 2.93823C7.96614 2.93823 7.79704 3.00839 7.67248 3.13322C7.41248 3.39322 7.41248 3.81322 7.67248 4.07322L10.9191 7.33322H3.47248C3.10582 7.33322 2.80582 7.63322 2.80582 7.99989C2.80582 8.36656 3.10582 8.66656 3.47248 8.66656Z" fill="black"/>
</mask>
<g mask="url(#mask0_49_2115)">
<rect width="16" height="16" fill="#FF800C"/>
</g>
</svg>
