<svg width="69" height="68" viewBox="0 0 69 68" fill="none" xmlns="http://www.w3.org/2000/svg">
<path d="M52.25 61.1667H7.33335V16.25H36.2084V9.83337H7.33335C3.80419 9.83337 0.916687 12.7209 0.916687 16.25V61.1667C0.916687 64.6959 3.80419 67.5834 7.33335 67.5834H52.25C55.7792 67.5834 58.6667 64.6959 58.6667 61.1667V32.2917H52.25V61.1667ZM27.2571 50.9963L20.9688 43.4246L12.1459 54.75H47.4375L36.08 39.6388L27.2571 50.9963ZM58.6667 9.83337V0.208374H52.25V9.83337H42.625C42.6571 9.86546 42.625 16.25 42.625 16.25H52.25V25.843C52.2821 25.875 58.6667 25.843 58.6667 25.843V16.25H68.2917V9.83337H58.6667Z" fill="#D2D4D7"/>
</svg>
