<svg width="28" height="28" viewBox="0 0 28 28" fill="none" xmlns="http://www.w3.org/2000/svg">
<path fill-rule="evenodd" clip-rule="evenodd" d="M17.5584 0.526921C16.8954 1.08607 16.5511 2.03648 16.2991 4.00275L16.1649 5.04922H13.799C10.5655 5.04922 9.67125 5.37616 7.82288 7.23403C5.64974 9.4184 4.28908 12.1066 5.36257 12.0949C5.59939 12.0923 6.05697 11.5631 6.55281 10.718C8.40712 7.55767 9.99602 6.36403 12.5687 6.19858C13.4529 6.14174 14.6134 6.16091 15.148 6.24132L16.1199 6.38716L16.3875 10.7204C16.7059 15.8812 17.0935 19.383 17.8565 23.9959C18.7343 29.302 19.3454 29.3302 20.2329 24.106C21.1823 18.5152 21.9022 10.7255 21.9068 5.99127L21.909 3.7386L22.5577 3.40263C22.9443 3.20236 23.7847 3.06643 24.6363 3.06643C26.3263 3.06643 27.105 2.76175 27.5326 1.93294C28.2281 0.585307 27.6448 -0.019004 26.7309 1.10281C26.1524 1.81309 26.0319 1.85715 24.2906 1.99705C23.2831 2.0779 22.2459 2.21185 21.9858 2.29469C21.588 2.42159 21.4895 2.33831 21.365 1.77057C21.0066 0.135875 18.8557 -0.566697 17.5584 0.526921ZM19.7071 1.30219C20.6662 1.81662 20.9662 5.00207 20.5992 10.7773C20.23 16.5908 19.374 23.7756 19.0505 23.7756C18.4909 23.7756 16.9486 6.62642 17.4618 6.11222C17.5808 5.99303 18.0857 5.84079 18.5841 5.77382L19.4903 5.65221V4.46937C19.4903 3.43369 19.4358 3.28674 19.0505 3.28674C18.7616 3.28674 18.6107 3.43369 18.6107 3.7148C18.6107 4.08911 17.8735 4.82891 17.5005 4.82891C17.3706 4.82891 17.4165 4.13405 17.643 2.66855C17.8381 1.4075 18.7622 0.795701 19.7071 1.30219ZM5.04681 14.037C2.71073 14.8735 1.18868 16.3855 0.426329 18.6267C-0.0404905 19.9997 0.127947 22.4949 0.778372 23.8412C2.8906 28.213 8.76642 29.2326 12.1736 25.8189C14.0092 23.9798 14.7106 20.984 13.8871 18.5002C12.7066 14.9387 8.48342 12.8065 5.04681 14.037ZM8.91659 15.0881C10.374 15.5216 11.8978 16.8845 12.5951 18.378C13.6626 20.665 13.072 23.4332 11.1447 25.1739C9.86651 26.3287 8.87658 26.7125 7.17664 26.7125C5.48175 26.7125 4.48566 26.3283 3.22703 25.1888C2.01127 24.0884 1.4255 22.88 1.29027 21.194C1.15086 19.4515 1.62427 18.1165 2.85674 16.7767C4.54129 14.9455 6.55347 14.3848 8.91659 15.0881ZM4.53799 18.4881C4.29612 18.7305 4.09822 19.0208 4.09822 19.1334C4.09822 19.4729 4.76382 20.0303 5.16929 20.0303C6.02047 20.0303 6.36481 19.0279 5.73176 18.3936C5.27901 17.9402 5.06814 17.957 4.53799 18.4881ZM8.62151 18.3936C7.88137 19.1354 8.461 20.1975 9.46786 19.9441C10.2489 19.7479 10.4365 18.9477 9.81879 18.4467C9.21718 17.9585 9.0626 17.9517 8.62151 18.3936ZM4.44366 21.9186C3.99377 22.3693 4.00806 22.5837 4.52172 23.0983C5.06132 23.639 5.81685 23.4627 5.9943 22.7551C6.24409 21.7573 5.17852 21.1825 4.44366 21.9186ZM8.50475 21.8923C8.14655 22.3248 8.28816 22.8868 8.84909 23.2594C9.25654 23.5299 9.37484 23.5163 9.83067 23.1464C10.2891 22.7745 10.3188 22.659 10.0868 22.149C9.7913 21.4991 8.9443 21.3616 8.50475 21.8923Z" fill="#FF800C"/>
</svg>
